<?xml version="1.0" standalone="no"?>
<!DOCTYPE svg PUBLIC "-//W3C//DTD SVG 20010904//EN"
 "http://www.w3.org/TR/2001/REC-SVG-20010904/DTD/svg10.dtd">
<svg version="1.0" xmlns="http://www.w3.org/2000/svg"
 width="364.000000pt" height="364.000000pt" viewBox="0 0 364.000000 364.000000"
 preserveAspectRatio="xMidYMid meet">
<metadata>
Created by potrace 1.14, written by Peter Selinger 2001-2017
</metadata>
<g transform="translate(0.000000,364.000000) scale(0.100000,-0.100000)"
fill="#000000" stroke="none">
<path d="M1240 3121 c0 -141 3 -191 13 -199 10 -9 407 -23 577 -21 14 1 127 0
251 -1 212 -2 226 -1 233 16 10 25 20 337 12 369 l-6 25 -540 0 -540 0 0 -189z"/>
<path d="M1414 2769 c-3 -5 -5 -191 -4 -414 0 -272 -3 -405 -10 -405 -5 0 -10
-7 -10 -15 0 -9 -7 -18 -15 -21 -8 -4 -15 -12 -15 -20 0 -7 -9 -18 -20 -24
-11 -6 -20 -15 -20 -21 0 -6 -18 -28 -40 -49 -22 -21 -40 -41 -40 -45 0 -11
-58 -65 -69 -65 -6 0 -11 -4 -11 -9 0 -5 -22 -32 -50 -60 -27 -28 -50 -54 -50
-56 0 -6 -62 -72 -152 -164 -38 -38 -68 -71 -68 -74 0 -7 -66 -81 -132 -147
-27 -26 -48 -50 -48 -54 0 -4 -25 -31 -55 -61 -30 -29 -55 -56 -55 -59 0 -4
-29 -35 -65 -70 -36 -35 -65 -67 -65 -71 0 -3 -18 -24 -39 -44 -108 -103 -130
-274 -55 -407 26 -46 88 -114 104 -114 5 0 10 -4 10 -8 0 -11 66 -38 111 -46
19 -3 591 -7 1270 -7 l1234 -1 65 27 c65 28 140 92 140 121 0 8 4 14 9 14 4 0
16 21 26 46 23 62 14 167 -20 240 -14 29 -25 56 -25 59 0 12 -73 98 -150 176
-41 42 -86 91 -100 108 -14 18 -65 75 -115 127 -49 52 -106 112 -125 134 -107
119 -177 194 -285 306 -162 168 -185 193 -185 199 0 3 -16 19 -35 36 -19 17
-35 37 -35 45 0 8 -9 19 -20 26 -11 7 -20 18 -20 25 0 6 -6 13 -12 15 -10 4
-12 48 -10 184 3 185 -11 526 -23 557 -5 12 -18 17 -44 17 -20 1 -81 8 -136
16 -55 8 -143 19 -196 24 -53 4 -131 13 -175 19 -137 18 -164 19 -170 10z"/>
</g>
</svg>
